# xmcd CD database file
#
# Track frame offsets:
#	182
#	9282
#	19907
#	31207
#	44745
#	73120
#	80807
#	90825
#	104167
#	118055
#	135695
#	144732
#	153570
#	158745
#	176145
#	184045
#
# Disc length: 2564 seconds
#
# Revision: 0
# Processed by: cddbd v1.4PL0 Copyright (c) Steve Scherf et al.
# Submitted via: CDex 1.40Beta8
#
DISCID=de0a0210
DTITLE=Johnny Cash - Live And On The Air [CD2/2)
DYEAR=1997
DGENRE=Country
TTITLE0=Big River
TTITLE1=There You Go
TTITLE2=I Got A Woman
TTITLE3=I Walk The Line
TTITLE4=Impersonations
TTITLE5=Hey, Porter
TTITLE6=Goodbye Little Darling
TTITLE7=Big River Ii
TTITLE8=Bandana
TTITLE9=Ballad Of The Harp Weaver
TTITLE10=Luther Played The Boogie
TTITLE11=Pickin' Time
TTITLE12=Cry, Cry, Cry
TTITLE13=The Ballad Of Ira Hayes
TTITLE14=I Got Stripes
TTITLE15=Five Feet High And Rising
EXTD=YEAR: 1997 ID3G: 2
EXTT0=
EXTT1=
EXTT2=
EXTT3=
EXTT4=
EXTT5=
EXTT6=
EXTT7=
EXTT8=
EXTT9=
EXTT10=
EXTT11=
EXTT12=
EXTT13=
EXTT14=
EXTT15=
PLAYORDER=
